<svg data-v-6805eed4="" version="1.0" xmlns="http://www.w3.org/2000/svg" xmlns:xlink="http://www.w3.org/1999/xlink" width="100%" height="100%" viewBox="0 0 340.000000 250.000000" preserveAspectRatio="xMidYMid meet" color-interpolation-filters="sRGB" style="margin: auto;">   <g data-v-6805eed4="" fill="#0a0619" class="bordersvg b-d1" transform="translate(45.98500061035156,76.802001953125)"><polyline stroke="#0a0619" stroke-width="3" fill-opacity="0" fill="#ffffff" points="124.01499938964844,20 124.01499938964844,10 248.02999877929688,0 248.02999877929688,96.39599609375 124.01499938964844,86.39599609375 124.01499938964844,76.39599609375"></polyline> <g transform="translate(0,20)"><g><rect data-gra="graph-name-bg" stroke-width="2" class="i-icon-bg" x="0" y="0" width="248.02999877929688" height="56.39599609375" fill-opacity="0"></rect> <!----> <!----> </g> <g transform="translate(10,3)"><g data-gra="path-name" fill-rule="" class="tp-name" transform="translate(0,0)"><g transform="scale(1)"><g><path d="M1.27-4.83L1.27 0 12.19 0 12.19-4.83 9.78-4.83 9.78-21.81 16.32-3.68 21.23-3.68 27.78-21.81 27.78-4.83 25.41-4.83 25.41 0 36.33 0 36.33-4.83 33.63-4.83 33.63-22.58 36.33-22.58 36.33-27.41 24.83-27.41 18.78-10.88 12.72-27.41 1.27-27.41 1.27-22.58 3.93-22.58 3.93-4.83ZM53.84-10.64C53.84-6.87 51.71-4.66 48.89-4.66 45.98-4.66 43.98-6.83 43.98-10.64 43.98-14.4 46.07-16.57 48.89-16.57 51.71-16.57 53.84-14.4 53.84-10.64ZM59.53-10.6C59.53-17.47 54.82-21.36 48.89-21.36 42.96-21.36 38.25-17.47 38.25-10.6 38.25-3.56 42.96 0.33 48.89 0.33 54.82 0.33 59.53-3.56 59.53-10.6ZM72.37-21.36C66.19-21.36 61.73-17.47 61.73-10.6 61.73-3.56 66.15 0.33 72.45 0.33 75.73 0.33 78.96-0.86 81.13-2.7L79.82-7.2C78.06-5.77 75.73-4.66 73.11-4.66 69.92-4.66 67.46-6.83 67.46-10.64 67.46-14.28 69.83-16.45 72.98-16.57 73.68-16.53 74.38-16.45 75.07-16.24L75.44-11.62 80.43-11.62 80.43-19.8C78.71-20.66 75.28-21.36 72.37-21.36ZM91.23 0L91.23-8.88 92.83-8.88 99.04 0 106.29 0 106.29-4.17 102.24-4.17 97.57-10.72 103.38-16.9 105.96-16.9 105.96-21.03 94.91-21.03 94.91-16.9 97.2-16.9 93.24-12.52 91.23-12.52 91.23-28.88 83.01-28.88 83.01-24.75 85.67-24.75 85.67-4.17 83.01-4.17 83.01 0ZM110.66-16.86L110.66-8.51C110.66-2.66 113.53 0.37 118.44 0.37 120.89 0.37 122.73-0.65 124.08-2.17L124.08 0 132.31 0 132.31-4.17 129.65-4.17 129.65-20.99 121.38-20.99 121.38-16.86 124.08-16.86 124.08-7.53C123.3-5.73 122.08-4.13 120.15-4.13 117.54-4.13 116.23-5.97 116.23-9.9L116.23-20.99 108-20.99 108-16.86ZM133.21-16.9L135.86-16.9 135.86 3.19 133.21 3.19 133.21 7.32 144.13 7.32 144.13 3.19 141.43 3.19 141.43-2.25C143.02-0.53 145.11 0.33 147.69 0.33 152.92 0.33 156.73-3.56 156.73-10.6 156.73-17.47 152.88-21.36 147.65-21.36 145.07-21.36 143.02-20.5 141.43-18.78L141.43-21.03 133.21-21.03ZM141.43-12.89C142.04-15.14 143.72-16.41 145.97-16.41 148.91-16.41 151.04-14.24 151.04-10.47 151.04-6.71 148.91-4.46 145.97-4.46 143.84-4.46 142.04-5.73 141.43-7.9ZM168.96 0L179.72 0 179.72-4.17 177.18-4.17 177.18-13.5C177.8-15.26 178.82-16.9 180.5-16.9 182.79-16.9 183.89-15.22 183.89-11.29L183.89 0 191.99 0 191.99-4.17 189.46-4.17 189.46-12.64C189.46-12.93 189.46-13.26 189.42-13.54 190.07-15.3 191.09-16.9 192.77-16.9 195.06-16.9 196.13-15.22 196.13-11.29L196.13 0 204.35 0 204.35-4.17 201.69-4.17 201.69-12.64C201.69-18.49 199.03-21.4 194.49-21.4 191.71-21.4 189.74-19.8 188.48-17.71 187.33-20.17 185.2-21.4 182.26-21.4 180.01-21.4 178.45-20.41 177.18-18.98L177.18-21.03 168.96-21.03 168.96-16.9 171.62-16.9 171.62-4.17 168.96-4.17ZM207.01-16.9L213.14 0 214.94 0 214.58 1.19C214.13 2.29 213.14 2.9 212 2.95 210.85 2.95 209.75 2.7 208.64 2.25L207.7 6.5C209.18 7 210.65 7.36 212.61 7.36 216.42 7.32 218.18 5.15 219.36 1.84L226.15-16.9 229.3-16.9 229.3-21.03 218.42-21.03 218.42-16.9 220.67-16.9 216.54-4.79 212.53-16.9 214.74-16.9 214.74-21.03 203.86-21.03 203.86-16.9Z" transform="translate(-1.2699999809265137, 28.8799991607666)"></path></g> <!----> <!----> <!----> <!----> <!----> <!----> <!----></g></g> <g data-gra="path-slogan" fill-rule="" class="tp-slogan" transform="translate(94.48499870300293,42.23999786376953)"><!----> <!----> <g transform="scale(1, 1)"><g transform="scale(1)"><path d="M1.10-1.72L0.50-1.02C0.85-0.66 1.26-0.38 1.73-0.17C2.20 0.04 2.71 0.14 3.26 0.14C3.68 0.14 4.05 0.09 4.38-0.03C4.71-0.15 4.99-0.31 5.22-0.51C5.45-0.71 5.63-0.95 5.75-1.22C5.88-1.50 5.94-1.79 5.94-2.10C5.94-2.39 5.90-2.64 5.81-2.86C5.73-3.08 5.62-3.27 5.47-3.44C5.33-3.60 5.16-3.75 4.96-3.87C4.76-3.99 4.54-4.10 4.32-4.20L3.20-4.68C3.04-4.74 2.89-4.81 2.74-4.89C2.58-4.97 2.44-5.05 2.32-5.15C2.19-5.25 2.09-5.37 2.01-5.50C1.93-5.63 1.90-5.80 1.90-5.99C1.90-6.35 2.03-6.63 2.30-6.83C2.57-7.04 2.92-7.14 3.36-7.14C3.73-7.14 4.06-7.07 4.35-6.94C4.64-6.81 4.91-6.63 5.15-6.40L5.69-7.04C5.41-7.33 5.07-7.57 4.67-7.75C4.27-7.93 3.83-8.02 3.36-8.02C3-8.02 2.67-7.96 2.37-7.86C2.07-7.76 1.81-7.61 1.59-7.42C1.37-7.23 1.20-7.01 1.07-6.76C0.95-6.50 0.89-6.22 0.89-5.93C0.89-5.64 0.94-5.39 1.03-5.17C1.13-4.95 1.25-4.76 1.40-4.60C1.56-4.44 1.73-4.30 1.92-4.19C2.11-4.08 2.30-3.98 2.48-3.90L3.61-3.41C3.80-3.32 3.97-3.24 4.13-3.16C4.29-3.08 4.43-2.99 4.54-2.89C4.66-2.79 4.75-2.67 4.82-2.53C4.89-2.39 4.92-2.22 4.92-2.02C4.92-1.63 4.78-1.32 4.49-1.09C4.20-0.85 3.80-0.73 3.28-0.73C2.87-0.73 2.47-0.82 2.09-1.00C1.71-1.18 1.38-1.42 1.10-1.72ZM7.03-3.94C7.03-3.30 7.12-2.72 7.29-2.21C7.46-1.71 7.70-1.28 8.01-0.93C8.32-0.58 8.68-0.32 9.10-0.13C9.52 0.05 9.98 0.14 10.48 0.14C10.98 0.14 11.43 0.04 11.82-0.16C12.21-0.36 12.56-0.64 12.88-1.00L12.31-1.61C12.06-1.33 11.79-1.11 11.50-0.96C11.22-0.81 10.88-0.73 10.50-0.73C10.12-0.73 9.79-0.81 9.49-0.96C9.19-1.11 8.93-1.33 8.72-1.61C8.52-1.89 8.35-2.23 8.24-2.62C8.12-3.02 8.06-3.46 8.06-3.96C8.06-4.45 8.12-4.89 8.24-5.28C8.36-5.67 8.53-6.01 8.75-6.28C8.96-6.56 9.22-6.77 9.53-6.92C9.83-7.07 10.17-7.14 10.55-7.14C10.88-7.14 11.18-7.07 11.43-6.94C11.68-6.81 11.91-6.63 12.12-6.41L12.68-7.04C12.45-7.30 12.16-7.53 11.80-7.72C11.44-7.92 11.02-8.02 10.54-8.02C10.03-8.02 9.57-7.92 9.14-7.73C8.71-7.55 8.34-7.28 8.03-6.92C7.72-6.57 7.47-6.14 7.30-5.64C7.12-5.14 7.03-4.57 7.03-3.94ZM15.34-4.14L15.34-7.07L16.66-7.07C17.27-7.07 17.74-6.96 18.07-6.76C18.40-6.55 18.56-6.18 18.56-5.66C18.56-5.15 18.40-4.77 18.07-4.52C17.74-4.27 17.27-4.14 16.66-4.14ZM18.66 0L19.79 0L17.80-3.43C18.33-3.57 18.76-3.82 19.08-4.19C19.40-4.56 19.56-5.05 19.56-5.66C19.56-6.07 19.49-6.42 19.36-6.70C19.22-6.98 19.03-7.20 18.79-7.38C18.54-7.56 18.25-7.68 17.91-7.76C17.57-7.83 17.20-7.87 16.80-7.87L14.34-7.87L14.34 0L15.34 0L15.34-3.32L16.76-3.32ZM21.31-7.87L21.31 0L25.97 0L25.97-0.85L22.31-0.85L22.31-3.71L25.30-3.71L25.30-4.56L22.31-4.56L22.31-7.03L25.85-7.03L25.85-7.87ZM27.64-7.87L27.64 0L32.29 0L32.29-0.85L28.63-0.85L28.63-3.71L31.62-3.71L31.62-4.56L28.63-4.56L28.63-7.03L32.17-7.03L32.17-7.87ZM33.96-7.87L33.96 0L34.91 0L34.91-4.12C34.91-4.53 34.89-4.95 34.87-5.36C34.84-5.77 34.81-6.18 34.78-6.58L34.82-6.58L35.68-4.96L38.53 0L39.56 0L39.56-7.87L38.62-7.87L38.62-3.80C38.62-3.39 38.63-2.97 38.66-2.54C38.69-2.11 38.71-1.70 38.74-1.30L38.69-1.30L37.84-2.93L34.99-7.87Z" transform="translate(-0.504, 8.016)"></path></g></g></g></g></g></g><defs v-gra="od"></defs></svg>